<?xml version="1.0" encoding="utf-8"?>
<!-- Generator: Adobe Illustrator 26.3.1, SVG Export Plug-In . SVG Version: 6.00 Build 0)  -->
<svg version="1.1" id="Layer_1" xmlns="http://www.w3.org/2000/svg" xmlns:xlink="http://www.w3.org/1999/xlink" x="0px" y="0px"
	 viewBox="0 0 16 16" style="enable-background:new 0 0 16 16;" xml:space="preserve">
<style type="text/css">
	.st0{opacity:0.33;fill:#424242;enable-background:new    ;}
	.st1{opacity:0.33;fill:#2EA98E;enable-background:new    ;}
	.st2{opacity:0.67;fill-rule:evenodd;clip-rule:evenodd;fill:#424242;stroke:#424242;stroke-width:0.5;stroke-miterlimit:10;}
</style>
<path class="st0" d="M14.5,2h-13L1,2.5v11L1.5,14h6.183c-0.022-0.063-0.044-0.125-0.066-0.188C7.524,13.542,7.433,13.271,7.341,13H2
	V6h12v3.462c0.251,0.248,0.503,0.497,0.753,0.747c0.083,0.083,0.165,0.167,0.247,0.249V2.5L14.5,2z M14,5H2V3h12V5z"/>
<path class="st1" d="M8.2,10.93L6.747,7.21C6.68,7.04,6.515,6.928,6.331,6.929H6.314C6.131,6.928,5.966,7.04,5.898,7.21L4,12.071
	h1.087l0.29-0.81h1.892l0.289,0.807C7.697,11.653,7.909,11.263,8.2,10.93z M5.698,10.345l0.625-1.746l0.625,1.747L5.698,10.345z"/>
<path class="st1" d="M10.237,10.053V6.965H9.229v3.398C9.527,10.208,9.864,10.102,10.237,10.053z"/>
<path class="st2" d="M14.215,11.841h0.025c0.397,0,0.778,0.158,1.058,0.439c0.585,0.586,0.585,1.535,0,2.121
	c-0.28,0.281-0.601,0.439-0.998,0.44l-0.06-0.007l-0.003,0.006h-3.738c-0.501,0.005-0.98-0.207-1.314-0.58
	c-0.646-0.72-0.586-1.827,0.134-2.473c0.238-0.214,0.53-0.358,0.845-0.417c0.243-0.046,0.494-0.039,0.734,0.02
	c0.311-0.713,1.057-1.133,1.828-1.03C13.498,10.466,14.106,11.07,14.215,11.841z M10.737,14.341h3.505
	c0.551-0.001,0.997-0.447,0.996-0.998c0-0.001,0-0.001,0-0.002c-0.001-0.551-0.447-0.998-0.998-1h-0.457l-0.061-0.428
	c-0.077-0.552-0.511-0.985-1.063-1.061c-0.552-0.075-1.086,0.227-1.306,0.739l-0.166,0.381l-0.404-0.094
	c-0.093-0.023-0.188-0.035-0.283-0.036c-0.331,0-0.648,0.131-0.882,0.366c-0.487,0.49-0.485,1.282,0.005,1.77
	c0.233,0.232,0.548,0.363,0.877,0.364L10.737,14.341L10.737,14.341z"/>
</svg>
