<?xml version="1.0" encoding="utf-8"?>
<!-- Generator: Adobe Illustrator 26.3.1, SVG Export Plug-In . SVG Version: 6.00 Build 0)  -->
<svg version="1.1" id="Layer_1" xmlns="http://www.w3.org/2000/svg" xmlns:xlink="http://www.w3.org/1999/xlink" x="0px" y="0px"
	 viewBox="0 0 16 16" style="enable-background:new 0 0 16 16;" xml:space="preserve">
<style type="text/css">
	.st0{fill:#424242;}
	.st1{fill:#2EA98E;}
</style>
<path class="st0" d="M14.5,2h-13L1,2.5v11L1.5,14h13l0.5-0.5v-11L14.5,2z M14,13H2V6h12V13z M14,5H2V3h12V5z"/>
<path class="st1" d="M6.747,7.21C6.68,7.04,6.515,6.928,6.331,6.929H6.314C6.131,6.928,5.966,7.04,5.898,7.21L4,12.071h1.087
	l0.29-0.81h1.892l0.29,0.81h1.086L6.747,7.21z M5.698,10.345l0.625-1.746l0.625,1.747L5.698,10.345z"/>
<path class="st1" d="M10.237,11.12V6.965H9.229v4.462c0.014,0.351,0.297,0.633,0.649,0.644H12v-0.951L10.237,11.12z"/>
</svg>
