<?xml version="1.0" encoding="utf-8"?>
<!-- Generator: Adobe Illustrator 26.3.1, SVG Export Plug-In . SVG Version: 6.00 Build 0)  -->
<svg version="1.1" id="Layer_1" xmlns="http://www.w3.org/2000/svg" xmlns:xlink="http://www.w3.org/1999/xlink" x="0px" y="0px"
	 viewBox="0 0 16 16" style="enable-background:new 0 0 16 16;" xml:space="preserve">
<style type="text/css">
	.st0{fill:#424242;}
	.st1{fill:#2EA98E;}
	.st2{fill-rule:evenodd;clip-rule:evenodd;fill:#424242;}
</style>
<path class="st0" d="M14.5,3h-11L3,3.5v10L3.5,14h11l0.5-0.5v-10L14.5,3z M14,13H4V7h10V13z M14,6H4V4h10V6z"/>
<path class="st1" d="M7.637,8.219C7.584,8.086,7.456,7.999,7.313,8H7.3C7.157,7.999,7.029,8.086,6.976,8.219L5.5,12h0.846
	l0.226-0.63h1.471L8.268,12h0.844L7.637,8.219z M6.821,10.657l0.486-1.358l0.486,1.359L6.821,10.657z"/>
<path class="st1" d="M11.129,11.26V8.029h-0.784v3.471c0.011,0.273,0.231,0.492,0.504,0.501H12.5v-0.74L11.129,11.26z"/>
<path class="st2" d="M2,1L1,2v10.071L2,13V2h12l-1-1H2z"/>
</svg>
