<?xml version="1.0" encoding="utf-8"?>
<!-- Generator: Adobe Illustrator 26.5.2, SVG Export Plug-In . SVG Version: 6.00 Build 0)  -->
<svg version="1.1" id="Layer_1" xmlns="http://www.w3.org/2000/svg" xmlns:xlink="http://www.w3.org/1999/xlink" x="0px" y="0px"
	 viewBox="0 0 16 16" style="enable-background:new 0 0 16 16;" xml:space="preserve">
<style type="text/css">
	.st0{fill:#2EA98E;}
	.st1{fill:#EDC006;}
</style>
<path class="st0" d="M3.4,3.4C3.3,3.2,3.1,3.1,2.9,3.1l0,0c-0.2,0-0.4,0.2-0.4,0.4L1,9.6l1.3-0.2l0.2-1l2.2-0.3L5.2,9l1.3-0.2
	L3.4,3.4z M2.7,7.3l0.4-2.2l1,2L2.7,7.3z"/>
<path class="st0" d="M8.2,7.5L7.5,2.5L6.3,2.7L7.1,8C7.2,8.4,7.5,8.7,8,8.6l2.5-0.4l-0.2-1.1L8.2,7.5z"/>
<path class="st1" d="M6.7,11l-2.2-0.4l1.2-0.8L7.3,10c0.2,0,0.4,0.3,0.4,0.5l0,1.8l1.4-1.2c0.2-0.2,0.5-0.2,0.7,0l1.4,1.1l-0.1-1.8
	c0-0.3,0.2-0.5,0.4-0.5l1.8-0.4l-1.5-1.1c-0.2-0.1-0.3-0.4-0.2-0.6l0.8-1.6l-1.3,0.4L12,5.4c0.1-0.1,0.1-0.2,0.2-0.2l1-0.3
	c0.2,0,0.4,0,0.5,0.2c0.1,0.2,0.2,0.4,0.1,0.6l-1.1,2.3l2,1.5C15,9.5,15,9.7,15,9.9c0,0.2-0.2,0.4-0.4,0.4l-2.4,0.6l0.1,2.5
	c0,0.2-0.1,0.4-0.3,0.5c-0.2,0.1-0.4,0.1-0.6-0.1l-2-1.5l-1.9,1.6C7.4,14,7.2,14,7.1,14c-0.2-0.1-0.3-0.3-0.3-0.5L6.7,11z"/>
</svg>
