<?xml version="1.0" encoding="utf-8"?>
<!-- Generator: Adobe Illustrator 26.5.2, SVG Export Plug-In . SVG Version: 6.00 Build 0)  -->
<svg version="1.1" id="Layer_1" xmlns="http://www.w3.org/2000/svg" xmlns:xlink="http://www.w3.org/1999/xlink" x="0px" y="0px"
	 viewBox="0 0 16 16" style="enable-background:new 0 0 16 16;" xml:space="preserve">
<style type="text/css">
	.st0{fill:#2EA98E;fill-opacity:0.55;}
	.st1{fill:#424242;}
</style>
<path class="st0" d="M5.8,4C5.7,3.7,5.4,3.5,5.1,3.5h0C4.7,3.5,4.4,3.7,4.3,4L1,12.5h1.9l0.5-1.4h3.3l0.5,1.4h1.9L5.8,4z M4,9.5
	l1.1-3.1l1.1,3.1L4,9.5z"/>
<path class="st0" d="M11.9,10.8V3.6h-1.8v7.8c0,0.6,0.5,1.1,1.1,1.1H15v-1.7L11.9,10.8z"/>
<path class="st1" d="M12.6,11.7c0.4-0.6,0.7-1.3,0.7-2.1c0-2-1.6-3.6-3.6-3.6S6.1,7.6,6.1,9.6s1.6,3.6,3.6,3.6
	c0.8,0,1.5-0.3,2.1-0.7l2.3,2.3c0.1,0.1,0.3,0.2,0.4,0.2s0.3-0.1,0.4-0.2c0.2-0.2,0.2-0.6,0-0.8L12.6,11.7z M9.7,12
	c-1.4,0-2.4-1.1-2.4-2.4s1-2.4,2.4-2.4s2.4,1.1,2.4,2.4S11,12,9.7,12z"/>
</svg>
