<?xml version="1.0" encoding="utf-8"?>
<!-- Generator: Adobe Illustrator 25.4.1, SVG Export Plug-In . SVG Version: 6.00 Build 0)  -->
<svg version="1.1" id="Layer_1" xmlns="http://www.w3.org/2000/svg" xmlns:xlink="http://www.w3.org/1999/xlink" x="0px" y="0px"
	 viewBox="0 0 576 576" style="enable-background:new 0 0 576 576;" xml:space="preserve">
<style type="text/css">
	.st0{fill:#C5C5C5;}
</style>
<path class="st0" d="M444.8,112.8h-75.1c-6.9,0-12.5,5.6-12.5,12.5s5.6,12.5,12.5,12.5h75.1c6.9,0,12.5,5.6,12.5,12.5v275.3
	c0,6.9-5.6,12.5-12.5,12.5h-75.1c-6.9,0-12.5,5.6-12.5,12.5c0,6.9,5.6,12.5,12.5,12.5h75.1c20.7,0,37.5-16.8,37.5-37.5V150.4
	C482.4,129.7,465.5,112.8,444.8,112.8z M131.2,137.9h75.1c6.9,0,12.5-5.6,12.5-12.5c0-6.9-5.6-12.5-12.5-12.5h-75.1
	c-20.7,0-37.5,16.8-37.5,37.5v275.3c0,20.7,16.8,37.5,37.5,37.5h75.1c6.9,0,12.5-5.6,12.5-12.5c0-6.9-5.6-12.5-12.5-12.5h-75.1
	c-6.9,0-12.5-5.6-12.5-12.5V150.4C118.7,143.5,124.3,137.9,131.2,137.9z"/>
</svg>
