<?xml version="1.0" encoding="utf-8"?>
<!-- Generator: Adobe Illustrator 26.5.2, SVG Export Plug-In . SVG Version: 6.00 Build 0)  -->
<svg version="1.1" id="Layer_1" xmlns="http://www.w3.org/2000/svg" xmlns:xlink="http://www.w3.org/1999/xlink" x="0px" y="0px"
	 viewBox="0 0 16 16" style="enable-background:new 0 0 16 16;" xml:space="preserve">
<style type="text/css">
	.st0{fill:#17C945;}
</style>
<path class="st0" d="M2.9,8c0-2.8,2.3-5.1,5.1-5.1s5.1,2.3,5.1,5.1s-2.3,5.1-5.1,5.1S2.9,10.8,2.9,8z M10.3,7.1
	c0.2-0.2,0.2-0.6,0-0.8c-0.2-0.2-0.6-0.2-0.8,0L7.4,8.5L6.5,7.6c-0.2-0.2-0.6-0.2-0.8,0s-0.2,0.6,0,0.8L7,9.7c0.2,0.2,0.6,0.2,0.8,0
	L10.3,7.1z"/>
</svg>
