<?xml version="1.0" encoding="utf-8"?>
<!-- Generator: Adobe Illustrator 25.4.1, SVG Export Plug-In . SVG Version: 6.00 Build 0)  -->
<svg version="1.1" id="Layer_1" xmlns="http://www.w3.org/2000/svg" xmlns:xlink="http://www.w3.org/1999/xlink" x="0px" y="0px"
	 viewBox="0 0 576 576" style="enable-background:new 0 0 576 576;" xml:space="preserve">
<style type="text/css">
	.st0{fill:#424242;}
</style>
<path class="st0" d="M480,160.2c17.6,0,32,14.4,32,32v166l32,25.3l0-191.3c0-35.3-28.7-64-64-64H220.6l40.6,32H480z M96,416.2
	c-17.6,0-32-14.4-32-32v-192c0-7.3,2.9-13.7,7-19.1l-25.3-20C37.2,164,32,177.4,32,192.2v192c0,35.4,28.6,64,63.1,64h324.3l-40.5-32
	H96z M563.8,470.2L30.1,39.9c-6.8-4.9-14.9-3.8-19.7,2.4c-4.8,6.2-3.8,15.2,2.3,20.2l533.7,430.3c2.6,2.1,5.6,3.1,8.7,3.1
	c4.1,0,8.3-1.9,11-5.4C570.9,483.4,569.8,475.1,563.8,470.2z"/>
</svg>
