<?xml version="1.0" encoding="utf-8"?>
<!-- Generator: Adobe Illustrator 25.4.1, SVG Export Plug-In . SVG Version: 6.00 Build 0)  -->
<svg version="1.1" id="Layer_1" xmlns="http://www.w3.org/2000/svg" xmlns:xlink="http://www.w3.org/1999/xlink" x="0px" y="0px"
	 viewBox="0 0 576 576" style="enable-background:new 0 0 576 576;" xml:space="preserve">
<style type="text/css">
	.st0{fill:#C5C5C5;}
</style>
<g>
	<path class="st0" d="M128,362c-5.5,0-10-4.5-10-10V224c0-5.5,4.5-10,10-10h16c5.5,0,10,4.5,10,10v128c0,5.5-4.5,10-10,10H128z"/>
</g>
<g>
	<path class="st0" d="M231.4,362c-5.5,0-10-4.5-10-10V224c0-5.5,4.5-10,10-10h16c5.5,0,10,4.5,10,10v128c0,5.5-4.5,10-10,10H231.4z"
		/>
</g>
<g>
	<path class="st0" d="M331,362.5c-5.5,0-10-4.5-10-10v-128c0-5.5,4.5-10,10-10h16c5.5,0,10,4.5,10,10v128c0,5.5-4.5,10-10,10H331z"
		/>
</g>
<path class="st0" d="M480,128.5H96c-35.3,0-64,28.7-64,64v192c0,35.4,28.7,64,64,64h384c35.3,0,64-28.6,64-64v-192
	C544,157.2,515.3,128.5,480,128.5z M512,384.5c0,17.6-14.4,32-32,32H96c-17.6,0-32-14.4-32-32v-192c0-17.6,14.4-32,32-32h384
	c17.6,0,32,14.4,32,32V384.5z"/>
</svg>
