<?xml version="1.0" encoding="utf-8"?>
<!-- Generator: Adobe Illustrator 25.4.1, SVG Export Plug-In . SVG Version: 6.00 Build 0)  -->
<svg version="1.1" id="Layer_1" xmlns="http://www.w3.org/2000/svg" xmlns:xlink="http://www.w3.org/1999/xlink" x="0px" y="0px"
	 viewBox="0 0 576 576" style="enable-background:new 0 0 576 576;" xml:space="preserve">
<style type="text/css">
	.st0{fill:#424242;}
</style>
<path class="st0" d="M304,367.6c8.8,0,16-7.2,16-16v-240c0-8.8-7.2-16-16-16s-16,7.2-16,16v240C288,360.4,295.2,367.6,304,367.6z
	 M304,399.6c-17.6,0-32,14.4-32,32c0,17.6,14.4,32,32,32s32-14.4,32-31.1C336,414,321.6,399.6,304,399.6z M96,159.6h112
	c8.8,0,16-7.2,16-16s-7.2-16-16-16H96c-35.3,0-64,28.7-64,64v192c0,35.4,28.7,64,64,64h112c8.8,0,16-7.2,16-16s-7.2-16-16-16H96
	c-17.7,0-32-14.3-32-32v-192C64,173.9,78.3,159.6,96,159.6z M480,127.6h-80c-8.8,0-16,7.2-16,16s7.2,16,16,16h80
	c17.7,0,32,14.3,32,32v192c0,17.7-14.3,32-32,32h-80c-8.8,0-16,7.2-16,16c0,8.8,7.2,16,16,16h80c35.3,0,64-28.6,64-64v-192
	C544,156.3,515.3,127.6,480,127.6z"/>
</svg>
