<?xml version="1.0" encoding="utf-8"?>
<!-- Generator: Adobe Illustrator 26.2.1, SVG Export Plug-In . SVG Version: 6.00 Build 0)  -->
<svg version="1.1" id="Layer_1" xmlns="http://www.w3.org/2000/svg" xmlns:xlink="http://www.w3.org/1999/xlink" x="0px" y="0px"
	 viewBox="0 0 16 16" style="enable-background:new 0 0 16 16;" xml:space="preserve">
<style type="text/css">
	.st0{fill-rule:evenodd;clip-rule:evenodd;fill:#C5C5C5;}
	.st1{fill:#00B6C1;}
</style>
<path class="st0" d="M12,9.9248c0.3401-0.0005,0.6846-0.0001,1,0.0012V2.5L12.5,2H10v1h2V9.9248z"/>
<path class="st0" d="M5.2,13H4V3h2V2H3.5L3,2.5v11L3.5,14h1.7C5.2,13.7,5.2,13.3,5.2,13z"/>
<path class="st1" d="M6.3966,11.2c3.0352,0.469,6.0537,0.5217,9.0839,0.0101c0.2073,0.4301,0.2359,0.8411-0.0166,1.231
	c-0.5696,0.8793-1.4738,1.2005-2.422,1.3542c-1.9336,0.3134-3.8637,0.3576-5.6893-0.5267
	c-0.8818-0.4271-1.2478-1.1229-1.0544-1.8306C6.3192,11.3616,6.3586,11.2904,6.3966,11.2L6.3966,11.2z M13.8228,11.8356
	c-0.6294,0.4785-1.3185,0.6724-2.0949,0.5857c0.119,0.3691,0.3457,0.6166,0.6934,0.7325c0.4259,0.1419,0.8105,0.0485,1.1257-0.2752
	C13.8234,12.5946,13.9073,12.2475,13.8228,11.8356L13.8228,11.8356z M9.9503,12.421c-0.7786,0.0881-1.469-0.1091-2.0963-0.5851
	c-0.0815,0.4072-0.0014,0.7525,0.2703,1.0357c0.3126,0.326,0.6962,0.4233,1.1234,0.285C9.5999,13.0425,9.8292,12.7939,9.9503,12.421
	L9.9503,12.421z"/>
</svg>
