<?xml version="1.0" encoding="utf-8"?>
<!-- Generator: Adobe Illustrator 26.2.1, SVG Export Plug-In . SVG Version: 6.00 Build 0)  -->
<svg version="1.1" id="Layer_1" xmlns="http://www.w3.org/2000/svg" xmlns:xlink="http://www.w3.org/1999/xlink" x="0px" y="0px"
	 viewBox="0 0 16 16" style="enable-background:new 0 0 16 16;" xml:space="preserve">
<style type="text/css">
	
		.st0{opacity:0.67;fill-rule:evenodd;clip-rule:evenodd;fill:#424242;stroke:#424242;stroke-width:0.25;stroke-miterlimit:10;enable-background:new    ;}
	.st1{fill:#EDC006;}
</style>
<path class="st0" d="M7.9,11.6V7.2l1.7-0.5l0,0h0.1c0.2-0.1,0.4-0.1,0.6-0.2c0.1,0,0.1,0,0.2-0.1l0,0l1.7-0.5v1.7
	c0.3,0,0.6,0,0.8,0.1V5.5l-0.6-0.4L7.6,3.8H7.4L2.5,5.1L2,5.5v5.7l0.3,0.4L7.5,13L8,12.9C7.9,12.5,7.9,12,7.9,11.6z M7.1,12.1
	l-4.2-1.2V6.1l4.2,1.1V12.1z M4.6,5.7L4.1,5.5l3.4-0.8l3.3,0.8L10,5.8L7.5,6.5L4.6,5.7z"/>
<path class="st1" d="M12,9c-0.6,0-1.2,0.2-1.7,0.5s-0.9,0.8-1.1,1.3C9,11.4,8.9,12,9.1,12.6c0.1,0.6,0.4,1.1,0.8,1.5
	c0.4,0.4,1,0.7,1.5,0.8c0.6,0.1,1.2,0.1,1.7-0.2c0.5-0.2,1-0.6,1.3-1.1s0.5-1.1,0.5-1.7c0-0.8-0.3-1.6-0.9-2.1C13.6,9.3,12.8,9,12,9
	z"/>
</svg>
