<?xml version="1.0" encoding="utf-8"?>
<!-- Generator: Adobe Illustrator 26.5.2, SVG Export Plug-In . SVG Version: 6.00 Build 0)  -->
<svg version="1.1" id="Layer_1" xmlns="http://www.w3.org/2000/svg" xmlns:xlink="http://www.w3.org/1999/xlink" x="0px" y="0px"
	 viewBox="0 0 16 16" style="enable-background:new 0 0 16 16;" xml:space="preserve">
<style type="text/css">
	
		.st0{opacity:0.67;fill-rule:evenodd;clip-rule:evenodd;fill:#C5C5C5;stroke:#C5C5C5;stroke-width:0.25;stroke-miterlimit:10;enable-background:new    ;}
	.st1{fill:#FFCC00;}
</style>
<path class="st0" d="M7.9,11.6V7.2l1.7-0.5l0,0h0.1c0.2-0.1,0.4-0.1,0.6-0.2c0.1,0,0.1,0,0.2-0.1l0,0l1.7-0.5v1.7
	c0.3,0,0.6,0,0.8,0.1V5.5l-0.6-0.4L7.6,3.8H7.4L2.5,5.1L2,5.5v5.7l0.3,0.4L7.5,13L8,12.9C7.9,12.5,7.9,12,7.9,11.6z M7.1,12.1
	l-4.2-1.2V6.1l4.2,1.1V12.1z M4.6,5.7L4.1,5.5l3.4-0.8l3.3,0.8L10,5.8L7.5,6.5L4.6,5.7z"/>
<path class="st1" d="M13.6,12.8c0.3-0.4,0.5-0.9,0.5-1.5c0-1.4-1.2-2.6-2.6-2.6s-2.6,1.2-2.6,2.6s1.2,2.6,2.6,2.6
	c0.6,0,1.1-0.2,1.5-0.5l1.7,1.7c0.1,0.1,0.2,0.1,0.3,0.1s0.2-0.1,0.3-0.1c0.1-0.1,0.1-0.4,0-0.6L13.6,12.8z M11.5,13
	c-1,0-1.7-0.8-1.7-1.7s0.7-1.7,1.7-1.7s1.7,0.8,1.7,1.7C13.3,12.2,12.5,13,11.5,13z"/>
</svg>
