<?xml version="1.0" encoding="utf-8"?>
<!-- Generator: Adobe Illustrator 26.5.2, SVG Export Plug-In . SVG Version: 6.00 Build 0)  -->
<svg version="1.1" id="Layer_1" xmlns="http://www.w3.org/2000/svg" xmlns:xlink="http://www.w3.org/1999/xlink" x="0px" y="0px"
	 viewBox="0 0 16 16" style="enable-background:new 0 0 16 16;" xml:space="preserve">
<style type="text/css">
	
		.st0{opacity:0.67;fill-rule:evenodd;clip-rule:evenodd;fill:#424242;stroke:#424242;stroke-width:0.25;stroke-miterlimit:10;enable-background:new    ;}
	.st1{fill:#EDC006;}
</style>
<path class="st0" d="M7.9,11.6V7.2l1.7-0.5l0,0h0.1c0.2-0.1,0.4-0.1,0.6-0.2c0.1,0,0.1,0,0.2-0.1l0,0l1.7-0.5v1.7
	c0.3,0,0.6,0,0.8,0.1V5.5l-0.6-0.4L7.6,3.8H7.4L2.5,5.1L2,5.5v5.7l0.3,0.4L7.5,13L8,12.9C7.9,12.5,7.9,12,7.9,11.6z M7.1,12.1
	l-4.2-1.2V6.1l4.2,1.1V12.1z M4.6,5.7L4.1,5.5l3.4-0.8l3.3,0.8L10,5.8L7.5,6.5L4.6,5.7z"/>
<path class="st1" d="M12.9,10l1.5-0.4c0.1,0,0.2,0,0.3,0.1s0.1,0.2,0,0.3L14,11.4l1.2,0.9c0.1,0.1,0.1,0.2,0.1,0.3s-0.1,0.2-0.2,0.2
	l-1.5,0.3v1.5c0,0.1-0.1,0.2-0.2,0.3c-0.1,0.1-0.2,0-0.3,0l-1.2-1l-1.2,1c-0.1,0.1-0.2,0.1-0.3,0s-0.2-0.2-0.2-0.3v-1.5l-1.5-0.3
	c-0.1,0-0.2-0.1-0.2-0.2c0-0.1,0-0.2,0.1-0.3l1.2-0.9L9.1,10c-0.1-0.1,0-0.2,0-0.3c0.1-0.1,0.2-0.1,0.3-0.1L11,10l0.6-1.4
	c0.1-0.1,0.2-0.2,0.3-0.2s0.3,0.1,0.3,0.2L12.9,10z"/>
</svg>
