<?xml version="1.0" encoding="utf-8"?>
<!-- Generator: Adobe Illustrator 26.2.1, SVG Export Plug-In . SVG Version: 6.00 Build 0)  -->
<svg version="1.1" id="Layer_1" xmlns="http://www.w3.org/2000/svg" xmlns:xlink="http://www.w3.org/1999/xlink" x="0px" y="0px"
	 viewBox="0 0 16 16" style="enable-background:new 0 0 16 16;" xml:space="preserve">
<style type="text/css">
	.st0{fill-rule:evenodd;clip-rule:evenodd;fill:#C5C5C5;}
</style>
<path class="st0" d="M6,3L6,3L6,3C5.7,3,5.5,3,5.3,3.1C5.2,3.2,5,3.3,4.9,3.4C4.8,3.6,4.7,3.7,4.6,3.9C4.5,4.1,4.5,4.3,4.5,4.5
	c0,0.2,0,0.5,0,0.7c0,0.2,0,0.4,0,0.7c0,0.2,0,0.4-0.1,0.6c0,0.2-0.1,0.4-0.2,0.6C4.2,7.2,4.1,7.4,3.9,7.6C3.8,7.7,3.7,7.9,3.5,8
	c0.2,0.1,0.3,0.3,0.4,0.4C4.1,8.6,4.2,8.8,4.3,9c0.1,0.2,0.1,0.4,0.2,0.6c0,0.2,0.1,0.4,0.1,0.6c0,0.2,0,0.4,0,0.7
	c0,0.2,0,0.4,0,0.7c0,0.2,0,0.4,0.1,0.6c0.1,0.2,0.2,0.3,0.3,0.5c0.1,0.1,0.3,0.2,0.5,0.3C5.5,13,5.7,13,5.9,13H6v0.2V14H5.9
	c-0.3,0-0.6-0.1-0.9-0.2c-0.3-0.1-0.6-0.3-0.8-0.5c-0.2-0.2-0.4-0.5-0.5-0.8l0,0c-0.1-0.3-0.2-0.5-0.2-0.8l0,0c0-0.3,0-0.6,0-0.9
	c0-0.3,0-0.6,0-0.9c0-0.2,0-0.4-0.1-0.6l0,0C3.3,9.2,3.2,9.1,3.1,8.9l0,0C3,8.8,2.8,8.7,2.6,8.6l0,0C2.5,8.5,2.3,8.5,2.1,8.5H2V8.4
	V7.6V7.5h0.1c0.2,0,0.4,0,0.6-0.1C2.8,7.3,3,7.2,3.1,7.1c0.1-0.1,0.2-0.3,0.3-0.5l0,0C3.5,6.4,3.5,6.2,3.5,6c0-0.3,0-0.6,0-0.9
	c0-0.3,0-0.6,0-0.9l0,0c0-0.3,0.1-0.6,0.2-0.8l0,0C3.8,3.2,4,2.9,4.2,2.7C4.4,2.5,4.7,2.3,5,2.2C5.3,2.1,5.6,2,5.9,2H6V3z M13.9,8.5
	L13.9,8.5L13.9,8.5L14,7.6V7.5h-0.1c-0.2,0-0.4,0-0.6-0.1l0,0c-0.2-0.1-0.3-0.2-0.5-0.3l0,0c-0.1-0.1-0.2-0.3-0.3-0.5l0,0
	c-0.1-0.2-0.1-0.4-0.1-0.6c0-0.3,0-0.6,0-0.9c0-0.3,0-0.6,0-0.9l0,0c0-0.3-0.1-0.6-0.2-0.8l0,0c-0.1-0.3-0.3-0.5-0.5-0.8
	c-0.2-0.2-0.5-0.4-0.8-0.5C10.7,2.1,10.4,2,10.1,2H10v0.8V3h0.1c0.2,0,0.4,0,0.6,0.1c0.2,0.1,0.3,0.2,0.5,0.3
	c0.1,0.1,0.2,0.3,0.3,0.5c0.1,0.2,0.1,0.4,0.1,0.6c0,0.2,0,0.5,0,0.7c0,0.2,0,0.4,0,0.7c0,0.2,0,0.4,0.1,0.6c0,0.2,0.1,0.4,0.2,0.6
	c0.1,0.2,0.2,0.4,0.3,0.6c0.1,0.1,0.3,0.3,0.4,0.4c0,0,0,0,0,0C13,8.1,13.5,8.2,13.9,8.5z M10,11.1l1-1h3l1,1v3l-1,1h-3l-1-1V11.1z
	 M11,11.1v3h3v-3H11z"/>
</svg>
