<?xml version="1.0" encoding="utf-8"?>
<!-- Generator: Adobe Illustrator 26.2.1, SVG Export Plug-In . SVG Version: 6.00 Build 0)  -->
<svg version="1.1" id="Layer_1" xmlns="http://www.w3.org/2000/svg" xmlns:xlink="http://www.w3.org/1999/xlink" x="0px" y="0px"
	 viewBox="0 0 16 16" style="enable-background:new 0 0 16 16;" xml:space="preserve">
<style type="text/css">
	.st0{fill-rule:evenodd;clip-rule:evenodd;fill:#C5C5C5;}
</style>
<path class="st0" d="M13.8,4.5L8.1,3H7.8L2.1,4.5L1.5,5v6.7l0.4,0.5L8,13.9l6.1-1.7l0.4-0.5V5L13.8,4.5z M7.5,12.7l-5-1.4V5.7l5,1.3
	V12.7z M4.6,5.2L4,5l4-1L12,5l-1,0.3L8,6.1L4.6,5.2z M13.5,11.4l-5,1.4V7l2-0.5v0c0,0,0.1,0,0.1,0c0.2-0.1,0.4-0.1,0.7-0.2
	c0.1,0,0.2,0,0.2-0.1v0l2-0.6V11.4z"/>
</svg>
