<?xml version="1.0" encoding="utf-8"?>
<!-- Generator: Adobe Illustrator 26.2.1, SVG Export Plug-In . SVG Version: 6.00 Build 0)  -->
<svg version="1.1" id="Layer_1" xmlns="http://www.w3.org/2000/svg" xmlns:xlink="http://www.w3.org/1999/xlink" x="0px" y="0px"
	 viewBox="0 0 16 16" style="enable-background:new 0 0 16 16;" xml:space="preserve">
<style type="text/css">
	.st0{fill-rule:evenodd;clip-rule:evenodd;fill:#424242;}
	.st1{fill:#424242;}
</style>
<path class="st0" d="M6,2.9718v0.0118H5.9108c-0.1997,0-0.387,0.0407-0.5628,0.1215C5.1746,3.1827,5.0219,3.2894,4.8909,3.4244
	c-0.1266,0.1304-0.2295,0.286-0.3085,0.4677c-0.074,0.1795-0.111,0.3681-0.111,0.567c0,0.2282,0.004,0.4544,0.0119,0.6785
	c0.008,0.2236,0.0081,0.4451,0,0.6647C4.4792,6.0198,4.4609,6.2334,4.4283,6.443C4.3951,6.6518,4.3391,6.8526,4.2604,7.0446
	C4.1809,7.2384,4.0726,7.4225,3.9362,7.597C3.8235,7.7412,3.6854,7.8754,3.5228,8c0.1625,0.1246,0.3006,0.2588,0.4133,0.403
	c0.1364,0.1745,0.2448,0.3586,0.3242,0.5524C4.3391,9.1476,4.395,9.3503,4.4281,9.5632c0.0326,0.2057,0.0509,0.4193,0.055,0.6408
	c0.008,0.2156,0.008,0.4372,0,0.6647c-0.0079,0.2199-0.0119,0.4441-0.0119,0.6724c0,0.203,0.037,0.3936,0.1109,0.5727
	c0.0788,0.1774,0.1816,0.3332,0.3086,0.4681c0.1311,0.1308,0.2831,0.2373,0.4568,0.319c0.1758,0.0769,0.3633,0.1156,0.5632,0.1156H6
	V13.2V14H5.9108c-0.3134,0-0.6168-0.0616-0.9096-0.1847c-0.2931-0.1233-0.5519-0.3-0.7755-0.5303
	c-0.2227-0.2292-0.3879-0.48-0.4929-0.7527L3.7323,12.531c-0.0985-0.266-0.1641-0.5407-0.197-0.8238l-0.0002-0.0017
	c-0.0284-0.284-0.0365-0.5739-0.0243-0.8698c0.0119-0.2895,0.0178-0.579,0.0178-0.8685c0-0.1984-0.0388-0.3867-0.1167-0.5661
	L3.4113,9.3994c-0.0747-0.1807-0.177-0.3357-0.3072-0.4659L3.1022,8.9316c-0.1264-0.134-0.2776-0.24-0.4548-0.3176L2.646,8.6133
	C2.47,8.5324,2.2847,8.4918,2.0892,8.4918H2V8.4V7.6V7.5082h0.0892c0.1958,0,0.3814-0.0387,0.5575-0.1157
	c0.1779-0.0819,0.3297-0.1884,0.4564-0.3189C3.2342,6.9387,3.3369,6.783,3.4116,6.606L3.412,6.6051
	C3.4897,6.426,3.5287,6.2356,3.5287,6.0328c0-0.2895-0.0059-0.579-0.0178-0.8685C3.4987,4.8684,3.5068,4.5805,3.5352,4.3005
	l0.0001-0.0014c0.0328-0.2872,0.0985-0.564,0.197-0.8302l0.0005-0.0013C3.8379,3.195,4.0031,2.9442,4.2258,2.715
	c0.2236-0.2302,0.4824-0.407,0.7755-0.5302C5.2941,2.0616,5.5974,2,5.9108,2H6V2.9718z M13.9232,8.4918H14V8.4V7.6V7.5082h-0.0892
	c-0.1955,0-0.3808-0.0406-0.5568-0.1215L13.3526,7.386c-0.1772-0.0776-0.3284-0.1837-0.4548-0.3177l-0.0019-0.0019
	c-0.1302-0.1302-0.2325-0.2852-0.3072-0.4659L12.588,6.5989c-0.0779-0.1794-0.1167-0.3677-0.1167-0.5661
	c0-0.2895,0.006-0.579,0.0179-0.8685c0.0121-0.2959,0.004-0.5858-0.0244-0.8697l-0.0002-0.0017
	c-0.0328-0.2831-0.0985-0.5578-0.1969-0.8239l-0.0005-0.0013c-0.1051-0.2727-0.2703-0.5234-0.493-0.7527
	c-0.2236-0.2302-0.4824-0.407-0.7755-0.5302C10.7059,2.0616,10.4026,2,10.0892,2H10v0.8v0.1836h0.0892
	c0.1999,0,0.3873,0.0387,0.5632,0.1156c0.1736,0.0817,0.3257,0.1882,0.4567,0.3191c0.127,0.1348,0.2299,0.2907,0.3087,0.4681
	c0.0738,0.1791,0.1109,0.3697,0.1109,0.5727c0,0.2283-0.004,0.4524-0.0119,0.6724c-0.008,0.2275-0.0081,0.4491,0,0.6646
	c0.0041,0.2215,0.0224,0.4351,0.055,0.6408c0.0331,0.2129,0.089,0.4155,0.1678,0.6078c0.0795,0.1938,0.1878,0.3779,0.3242,0.5524
	C12.1765,7.7412,12.3146,7.8754,12.4772,8c-0.0106,0.0081-0.0212,0.0163-0.0316,0.0246C12.9764,8.0834,13.4758,8.246,13.9232,8.4918
	z"/>
<path class="st1" d="M10,11l1-1h3l1,1v3l-1,1h-3l-1-1V11z M11,11v3h3v-3H11z"/>
</svg>
