<?xml version="1.0" encoding="utf-8"?>
<!-- Generator: Adobe Illustrator 26.2.1, SVG Export Plug-In . SVG Version: 6.00 Build 0)  -->
<svg version="1.1" id="Layer_1" xmlns="http://www.w3.org/2000/svg" xmlns:xlink="http://www.w3.org/1999/xlink" x="0px" y="0px"
	 viewBox="0 0 16 16" style="enable-background:new 0 0 16 16;" xml:space="preserve">
<style type="text/css">
	.st0{fill:#424242;}
</style>
<path class="st0" d="M14.5,2h-13L1,2.5v10L1.5,13h6.6c0,0,0,0,0-0.1c0-0.3,0-0.6,0-0.9H2V3h12v5.1c0.3,0,0.7,0,1,0V2.5L14.5,2z"/>
<rect x="4" y="7" class="st0" width="6" height="1"/>
<rect x="4" y="5" class="st0" width="8" height="1"/>
<rect x="4" y="9" class="st0" width="4" height="1"/>
<path class="st0" d="M10,11l1-1h3l1,1v3l-1,1h-3l-1-1V11z M11,11v3h3v-3H11z"/>
</svg>
