<?xml version="1.0" encoding="utf-8"?>
<!-- Generator: Adobe Illustrator 26.2.1, SVG Export Plug-In . SVG Version: 6.00 Build 0)  -->
<svg version="1.1" id="Layer_1" xmlns="http://www.w3.org/2000/svg" xmlns:xlink="http://www.w3.org/1999/xlink" x="0px" y="0px"
	 viewBox="0 0 16 16" style="enable-background:new 0 0 16 16;" xml:space="preserve">
<style type="text/css">
	.st0{fill-rule:evenodd;clip-rule:evenodd;fill:#C5C5C5;}
	.st1{fill:#2EA98E;}
</style>
<path class="st0" d="M5.2,13H4V3h2V2H3.5L3,2.5v11L3.5,14h1.7C5.2,13.7,5.2,13.3,5.2,13z"/>
<path class="st0" d="M12,7.7c0.2,0,0.5,0,0.7,0c0.1,0,0.2,0,0.3,0V2.5L12.5,2H10v1h2V7.7z"/>
<path class="st1" d="M9.5107,9.1389c-0.0674-0.1706-0.2326-0.2824-0.416-0.2817H9.0775c-0.1835-0.0008-0.3486,0.1111-0.416,0.2817
	L6.7633,14h1.0874l0.29-0.8097h1.8917L10.3224,14h1.0857L9.5107,9.1389z M8.4615,12.2731l0.6251-1.746l0.6251,1.7474L8.4615,12.2731
	z"/>
<path class="st1" d="M13.0001,13.0489V8.894h-1.0083v4.4623c0.0138,0.3515,0.297,0.6326,0.6486,0.6437h2.1229v-0.9509
	L13.0001,13.0489z"/>
</svg>
