<?xml version="1.0" encoding="utf-8"?>
<!-- Generator: Adobe Illustrator 26.2.1, SVG Export Plug-In . SVG Version: 6.00 Build 0)  -->
<svg version="1.1" id="Layer_1" xmlns="http://www.w3.org/2000/svg" xmlns:xlink="http://www.w3.org/1999/xlink" x="0px" y="0px"
	 viewBox="0 0 16 16" style="enable-background:new 0 0 16 16;" xml:space="preserve">
<style type="text/css">
	.st0{opacity:0.67;fill-rule:evenodd;clip-rule:evenodd;fill:#C5C5C5;}
	.st1{fill:#FFCC00;}
</style>
<path class="st0" d="M14.6,8.5V8.1l-3-3l-0.7,0.7l1.9,1.9C13.5,7.9,14.1,8.1,14.6,8.5z"/>
<path class="st0" d="M8.9,9c0.4-0.4,0.8-0.8,1.4-1H3l2.1-2.1L4.4,5.1l-3,3v0.7l3,3l0.7-0.7L3,9H8.9z"/>
<path class="st1" d="M12,9c-0.6,0-1.2,0.2-1.7,0.5s-0.9,0.8-1.1,1.3C9,11.4,8.9,12,9.1,12.6c0.1,0.6,0.4,1.1,0.8,1.5
	c0.4,0.4,1,0.7,1.5,0.8c0.6,0.1,1.2,0.1,1.7-0.2c0.5-0.2,1-0.6,1.3-1.1s0.5-1.1,0.5-1.7c0-0.8-0.3-1.6-0.9-2.1C13.6,9.3,12.8,9,12,9
	z"/>
</svg>
