<?xml version="1.0" encoding="utf-8"?>
<!-- Generator: Adobe Illustrator 25.4.1, SVG Export Plug-In . SVG Version: 6.00 Build 0)  -->
<svg version="1.1" id="Layer_1" xmlns="http://www.w3.org/2000/svg" xmlns:xlink="http://www.w3.org/1999/xlink" x="0px" y="0px"
	 viewBox="0 0 576 576" style="enable-background:new 0 0 576 576;" xml:space="preserve">
<style type="text/css">
	.st0{fill:#424242;}
</style>
<path class="st0" d="M43.2,410.4v26.4c0,8.2,6.1,14.4,13.6,14.4s13.6-6.1,13.6-13.6v-26.4c0-67.5,54.9-121.6,122.4-121.6h180
	L238.4,401.5c-5.8,4.8-6.5,13.4-1.7,19.2c2.7,1.7,6.6,3.4,10.5,3.4c3.1,0,6.2-1,8.7-3.2l163.2-135.2c3.1-3.3,4.9-7.2,4.9-12
	c0-4-1.8-7.9-4.9-10.4L255.9,128c-5.7-4.8-14.3-4.1-19.2,1.7c-4.8,5.8-4.8,14.3,1.8,19.2l134.4,111.9H192.8
	C110.3,260.8,43.2,327.2,43.2,410.4z M347.3,399.9c-5.8,4.8-6.5,13.4-1.7,19.2c2.7,3.2,6.6,4.9,10.4,4.9c3.1,0,6.2-1,8.7-3.2
	L528,285.6c3.1-3.3,4.8-7.2,4.8-12c0-4-1.8-7.9-4.9-10.4L364.7,128c-5.8-4.8-14.3-4.1-19.2,1.7c-4.8,5.8-4,14.3,1.7,19.2L498,274.4
	L347.3,399.9z"/>
</svg>
