<?xml version="1.0" encoding="utf-8"?>
<!-- Generator: Adobe Illustrator 25.4.1, SVG Export Plug-In . SVG Version: 6.00 Build 0)  -->
<svg version="1.1" id="Layer_1" xmlns="http://www.w3.org/2000/svg" xmlns:xlink="http://www.w3.org/1999/xlink" x="0px" y="0px"
	 viewBox="0 0 576 576" style="enable-background:new 0 0 576 576;" xml:space="preserve">
<style type="text/css">
	.st0{fill:#C5C5C5;}
</style>
<path class="st0" d="M220,260.8h234.4L320,148.9c-5.8-4.8-6.5-13.4-1.7-19.2c4.8-5.8,13.4-6.5,19.2-1.7l163.2,135.2
	c3.1,3.4,4.9,7.1,4.9,10.4c0,4-1.8,7.9-4.9,10.4L337.5,419.3c-2.6,2.1-5.6,3.2-8.7,3.2c-3.9,0-7.8-1.7-10.4-4.9
	c-4.8-5.8-4-14.3,1.7-19.2l134.4-111.9H220c-67.5,0-122.4,54.9-122.4,121.6v26.4c0,10.5-6.1,16.6-13.6,16.6s-13.6-6.1-13.6-13.6
	v-26.4C70.4,327.2,137.5,260.8,220,260.8z"/>
</svg>
