<?xml version="1.0" encoding="utf-8"?>
<!-- Generator: Adobe Illustrator 26.2.1, SVG Export Plug-In . SVG Version: 6.00 Build 0)  -->
<svg version="1.1" id="Layer_1" xmlns="http://www.w3.org/2000/svg" xmlns:xlink="http://www.w3.org/1999/xlink" x="0px" y="0px"
	 viewBox="0 0 16 16" style="enable-background:new 0 0 16 16;" xml:space="preserve">
<style type="text/css">
	.st0{fill-rule:evenodd;clip-rule:evenodd;fill:#C5C5C5;}
</style>
<path class="st0" d="M14.1,9.6c-0.4,0.4-0.9,0.7-1.4,0.8c0-0.1,0-0.1-0.1-0.1c-0.1-0.2-0.2-0.4-0.2-0.7c0,0,0-0.1-0.1-0.2
	c0.9-0.2,1.6-1.1,1.6-2c0-1-0.9-1.9-1.9-1.9h-0.9l-0.2-0.9c-0.1-1.1-1-1.9-2.1-2.1C7.7,2.4,6.6,3,6.2,4L5.9,4.8L5.1,4.6
	C4.9,4.5,4.7,4.5,4.5,4.5c-0.6,0-1.3,0.3-1.8,0.8c-1,0.9-1,2.5,0,3.5c0.5,0.4,1.1,0.7,1.8,0.7c0,0.2,0,0.4,0,0.6c0,0.1,0,0.3,0,0.4
	c-1,0-1.9-0.4-2.6-1.2c-1-1.1-1.2-2.8-0.4-4.1C2,4.3,2.9,3.7,3.9,3.6c0.4-0.1,0.9-0.1,1.4,0C6,2.1,7.5,1.3,9,1.5
	c1.6,0.2,2.8,1.5,3,3c0.8,0,1.6,0.3,2.1,0.9C15.3,6.6,15.3,8.4,14.1,9.6z"/>
<path class="st0" d="M11,11l-0.7,0.7L9,10.4v4c-0.2,0-0.5,0-0.5,0s-0.3,0-0.5,0v-4l-1.3,1.3L6,11l2.1-2.2h0.8L11,11z"/>
<path class="st0" d="M10.3,8.8L8.5,7L6.7,8.8L6,8.1L8.2,6c0.2,0,0.4,0,0.4,0c0.1,0,0.2,0,0.3,0L11,8.1L10.3,8.8z"/>
</svg>
