<?xml version="1.0" encoding="utf-8"?>
<!-- Generator: Adobe Illustrator 25.4.1, SVG Export Plug-In . SVG Version: 6.00 Build 0)  -->
<svg version="1.1" id="Ninja" xmlns="http://www.w3.org/2000/svg" xmlns:xlink="http://www.w3.org/1999/xlink" x="0px" y="0px"
	 viewBox="0 0 576 512" style="enable-background:new 0 0 576 512;" xml:space="preserve">
<g id="Eyes">
	<path d="M369.2,268.6c-10.7,0-19.5-8.7-19.5-19.5c0-10.7,8.7-19.5,19.5-19.5c37,0,62.6-24.3,63.7-25.3c3.6-3.7,8.5-5.7,13.7-5.7
		c5.2,0,10.1,2,13.8,5.7c3.7,3.7,5.7,8.5,5.7,13.8c0,5.2-2.1,10.1-5.8,13.8C458.9,233.4,423.1,268.6,369.2,268.6z M278.2,268.2
		c-53.9,0-89.7-35.2-91.2-36.7c-7.5-7.5-7.6-18.7-0.2-27.3l0.1-0.1l0.1-0.1c4.3-4.3,9.9-4.8,13.8-4.8c4.9,0,9.6,1.8,13.2,5.1
		l0.1,0.1l0.1,0c0.5,0.3,1,0.7,1.6,1.2c24.9,19.6,47.7,23.7,62.5,23.7c10.7,0,19.5,8.7,19.5,19.5
		C297.7,259.4,288.9,268.2,278.2,268.2z"/>
</g>
<g id="Knot">
	<path d="M22.9,226.6c-10.3,0-19.6-7.2-21.5-16.9c-1-5.1,0.1-10.2,3.1-14.3c3.2-4.4,8.2-7.2,13.9-7.9l32.4-3.9l-23.4-21.5
		c-4.2-3.8-6.7-9.1-6.7-14.5c-0.1-5.1,2-9.9,5.7-13.5c3.7-3.6,8.8-5.5,14.2-5.5c2.3,0,4.6,0.4,6.9,1.1c1.9,0.6,4.9,2.1,7.4,4.5
		l55.5,50.1c5.8,5.2,8.1,13.2,5.8,20.2c-2.3,7.1-8.6,12.1-16.5,13.1l-74.3,8.9C24.6,226.6,23.7,226.6,22.9,226.6z"/>
</g>
<g id="Circle_with_notch">
	<path d="M323.4,507.7c-21.3,0-42.6-2.7-63.3-8.2C151.1,471.1,74,372.4,72.5,259.7c-0.1-10.7,8.5-19.6,19.2-19.8l0.2,0
		c10.6,0,19.4,8.6,19.5,19.2c1.3,95.3,66.5,178.6,158.6,202.7c17.5,4.6,35.5,6.9,53.5,6.9c96.6,0,181.2-65.4,205.7-159.1
		c29.6-113.5-38.4-229.9-151.7-259.5c-17.4-4.5-35.3-6.8-53.3-6.8c-76,0-146.2,40.7-183.4,106.3c-3.5,6-9.9,9.8-16.9,9.8
		c-3.4,0-6.8-0.9-9.7-2.6c-4.5-2.6-7.7-6.8-9-11.9c-1.3-5.1-0.6-10.3,2-14.8C151.3,52.5,234.5,4.3,324.3,4.3c21.2,0,42.4,2.7,63,8.1
		c64.8,16.9,119.2,58.2,153.2,116.2c33.9,58,43.3,125.8,26.3,190.8C537.8,430.3,437.8,507.7,323.4,507.7L323.4,507.7z"/>
</g>
</svg>
